<?xml version="1.0" encoding="UTF-8"?>
<svg id="Layer_1" data-name="Layer 1" xmlns="http://www.w3.org/2000/svg" viewBox="0 0 1200 1200">
  <defs>
    <style>
      .cls-1 {
        fill: #fff;
      }
    </style>
  </defs>
  <g>
    <path class="cls-1" d="m366.59,1068.54l-3.59,24.92h-71.91l14.47-100.41h29.8l-10.88,75.49h42.11Z"/>
    <path class="cls-1" d="m367.58,1093.47l14.47-100.41h29.8l-14.47,100.41h-29.79Z"/>
    <path class="cls-1" d="m494.77,1093.47l8.42-59.45-27.34,49.56h-19.48l-13.06-49.56-8.57,59.45h-26.21l14.47-100.41h31.94l16.2,55.58,32.22-55.58h31.94l-14.47,100.41h-26.07Z"/>
    <path class="cls-1" d="m561.39,1077.42l-8.33,16.04h-30.65l57.3-100.41h30.65l26.93,100.41h-31.8l-3.56-16.04h-40.54Zm28.49-54.58l-17.05,32.8h24.35l-7.31-32.8Z"/>
    <path class="cls-1" d="m642.92,1058.37l2.6-18.05h39.11l-2.6,18.05h-39.11Z"/>
    <path class="cls-1" d="m728.09,1015.97l-2.27,15.76h47.41l-3.3,22.92h-47.41l-2.29,15.9h53.72l-3.3,22.92h-83.51l14.47-100.41h82.08l-3.3,22.92h-52.28Z"/>
    <path class="cls-1" d="m779.23,1093.47l14.47-100.41h29.8l-14.47,100.41h-29.79Z"/>
    <path class="cls-1" d="m861.16,1015.97l-2.27,15.76h47.41l-3.3,22.92h-47.41l-2.29,15.9h53.72l-3.3,22.92h-83.51l14.47-100.41h82.08l-3.3,22.92h-52.28Z"/>
  </g>
  <g>
    <path class="cls-1" d="m926.15,663.4l-66.73-122.98h-205.83v-43.43h-63.55l-12.27,14.6-8.75,9.62h-239.62c-2.33-4.84-7.27-8.2-13-8.2-7.97,0-14.44,6.46-14.44,14.44s6.46,14.44,14.44,14.44c5.74,0,10.67-3.35,13-8.2h237.57v32.25h86.61v-13.04h198.8l58.38,109.19-67.97,93.08-73.14-53.76c.5-1.88.79-3.84.79-5.88,0-12.71-10.34-23.04-23.04-23.04s-23.04,10.34-23.04,23.04,10.34,23.04,23.04,23.04c6.17,0,11.76-2.45,15.9-6.41l82.3,58.83,80.54-107.6Zm-346.69-135.11l7.63-8.39,8.77-10.42h45.25v21.99h-30.82v21.99h-30.82v-25.17Zm167.95,180.3c-7.2,0-13.06-5.86-13.06-13.06s5.86-13.06,13.06-13.06,13.06,5.86,13.06,13.06-5.86,13.06-13.06,13.06Z"/>
    <path class="cls-1" d="m840.81,583.65h-111.51c-2.33-4.84-7.27-8.2-13-8.2-7.97,0-14.44,6.46-14.44,14.44s6.46,14.44,14.44,14.44c5.73,0,10.67-3.35,13-8.2h104.31l35.2,60.88-23.25,28.06c-1.25-.35-2.57-.56-3.94-.56-7.97,0-14.44,6.46-14.44,14.44s6.46,14.44,14.44,14.44,14.44-6.46,14.44-14.44c0-1.99-.4-3.89-1.13-5.62l29.04-35.05-43.15-74.64Z"/>
    <path class="cls-1" d="m540.54,477.33l30.18-30.18-70.33-157.8,57.61-77.46h81.35l57.9,71.51-33.76,61.21c-1.59-.35-3.24-.55-4.94-.55-12.71,0-23.04,10.34-23.04,23.04s10.34,23.04,23.04,23.04,23.04-10.34,23.04-23.04c0-6.52-2.73-12.4-7.1-16.6l37.84-68.61-67.21-82.49h-93.43l-65.67,88.38,69.8,156.61-20.45,20.45h-163.65l-43.45-43.44-5.38-67.36,39.32-39.32,46.03,49.63c-.87,1.86-1.37,3.92-1.37,6.1,0,7.97,6.46,14.44,14.44,14.44s14.44-6.46,14.44-14.44-6.46-14.44-14.44-14.44c-1.18,0-2.32.16-3.41.42l-54.8-60.26-52.69,52.69,5.38,77.7,50.76,50.76h173.99Zm118.01-97.17c-7.2,0-13.06-5.86-13.06-13.06s5.86-13.06,13.06-13.06,13.06,5.86,13.06,13.06-5.86,13.06-13.06,13.06Z"/>
    <path class="cls-1" d="m548.02,583.65l-90.08,151.51h-117.29l-38.71-65.35v-66.6c9.68-2.73,16.8-11.62,16.8-22.16,0-12.71-10.34-23.04-23.04-23.04s-23.04,10.34-23.04,23.04c0,10.54,7.12,19.43,16.8,22.16v70.02l44.08,74.41h131.5l90.08-151.51h84.98l59.1,213.59-56.94,56.94h-76.61l-43.57-36.62,16.01-22.56c1.34.41,2.77.64,4.25.64,7.97,0,14.44-6.46,14.44-14.44s-6.46-14.44-14.44-14.44-14.44,6.46-14.44,14.44c0,1.88.37,3.67,1.02,5.31l-24.5,31.05,56.06,49.1h86.96l65.74-65.74-63.57-229.76h-101.58Zm-265.38-2.6c0-7.2,5.86-13.06,13.06-13.06s13.06,5.86,13.06,13.06-5.86,13.06-13.06,13.06-13.06-5.86-13.06-13.06Z"/>
    <path class="cls-1" d="m631.67,623.43h-65.86l-50.46,89.48c-.44-.04-.89-.07-1.34-.07-7.97,0-14.44,6.46-14.44,14.44s6.46,14.44,14.44,14.44,14.44-6.46,14.44-14.44c0-2.94-.88-5.66-2.39-7.94l47.04-83.42h48.98l35.59,133.41-28.31,28.31c-3.92-3.09-8.86-4.96-14.23-4.96-12.71,0-23.04,10.34-23.04,23.04s10.34,23.04,23.04,23.04,23.04-10.34,23.04-23.04c0-2.75-.51-5.39-1.4-7.84l34.82-34.82-39.92-149.63Zm-16.54,205.34c-7.2,0-13.06-5.86-13.06-13.06s5.86-13.06,13.06-13.06,13.06,5.86,13.06,13.06-5.86,13.06-13.06,13.06Z"/>
    <path class="cls-1" d="m324.59,659.05l27.24,51.67h86.11l64.51-114.39c.65.06,1.31.1,1.97.1,12.71,0,23.04-10.34,23.04-23.04s-10.34-23.04-23.04-23.04-23.04,10.34-23.04,23.04c0,7.54,3.66,14.23,9.28,18.44l-60.01,106.41h-71.29l-22.29-42.27v-45.93l28.79-29.73c1.44.48,2.97.75,4.56.75,7.97,0,14.44-6.46,14.44-14.44s-6.46-14.44-14.44-14.44-14.44,6.46-14.44,14.44c0,1.76.33,3.44.91,5l-32.31,33.37v54.08Zm179.83-98.72c7.2,0,13.06,5.86,13.06,13.06s-5.86,13.06-13.06,13.06-13.06-5.86-13.06-13.06,5.86-13.06,13.06-13.06Z"/>
    <path class="cls-1" d="m411.85,314.4c3.88,0,7.53-.97,10.73-2.67l68.94,88.93c-.97,1.94-1.54,4.13-1.54,6.45,0,7.97,6.46,14.44,14.44,14.44s14.44-6.46,14.44-14.44-6.46-14.44-14.44-14.44c-1.04,0-2.06.12-3.04.33l-69.73-89.93c2.04-3.44,3.23-7.43,3.23-11.71,0-12.71-10.34-23.04-23.04-23.04s-23.04,10.34-23.04,23.04,10.34,23.04,23.04,23.04Zm0-36.1c7.2,0,13.06,5.86,13.06,13.06s-5.86,13.06-13.06,13.06-13.06-5.86-13.06-13.06,5.86-13.06,13.06-13.06Z"/>
    <path class="cls-1" d="m671.21,454.63c-7.97,0-14.44,6.46-14.44,14.44s6.46,14.44,14.44,14.44,14.44-6.46,14.44-14.44c0-2.79-.8-5.38-2.17-7.59l95.3-143.36h83.42l49.11,92.73-47.81,65.82h-70.89c-2.73-9.68-11.62-16.8-22.16-16.8-12.71,0-23.04,10.34-23.04,23.04s10.34,23.04,23.04,23.04c10.54,0,19.43-7.12,22.16-16.8h77.66l55.88-75.36-55.71-108.16h-98.35l-99.12,149.11c-.58-.07-1.16-.12-1.76-.12Zm99.24,41.35c-7.2,0-13.06-5.86-13.06-13.06s5.86-13.06,13.06-13.06,13.06,5.86,13.06,13.06-5.86,13.06-13.06,13.06Z"/>
    <path class="cls-1" d="m282.07,405.77l.86,35.67,65.06,64.37h208.69l51.09-51.09-68.74-157.2,33.23-52.51h52.53l21.43,38.88c-1.33,2.18-2.1,4.73-2.1,7.48,0,7.97,6.46,14.44,14.44,14.44s14.44-6.46,14.44-14.44-6.46-14.44-14.44-14.44c-.64,0-1.26.06-1.88.14l-24.89-44.54h-66.46l-40.36,63.98,67.95,155.42-41.41,41.41h-198.38l-57.83-57.22-.73-30.53c4.74-2.37,8-7.25,8-12.91,0-7.97-6.46-14.44-14.44-14.44s-14.44,6.46-14.44,14.44c0,5.81,3.44,10.81,8.39,13.1Z"/>
    <path class="cls-1" d="m875.24,421.33c7.97,0,14.44-6.46,14.44-14.44s-5.92-13.86-13.41-14.39l-22.69-45.44h-70.1l-52.83,79.48c-.42-.04-.83-.06-1.26-.06-7.97,0-14.44,6.46-14.44,14.44s6.46,14.44,14.44,14.44,14.44-6.46,14.44-14.44c0-2.96-.9-5.71-2.42-8.01l48.77-73.36h55.26l19.21,37.55c-2.38,2.57-3.85,6.01-3.85,9.79,0,7.97,6.46,14.44,14.44,14.44Z"/>
  </g>
  <g>
    <path class="cls-1" d="m331.84,263.42c63.23-63.24,144.87-101.37,232.83-109.44v-37.16c-97.86,8.17-188.78,50.19-259.02,120.42-19.79,19.79-37.33,41.22-52.52,63.99l32.16,18.57c13.54-20.02,29.07-38.9,46.54-56.37Z"/>
    <path class="cls-1" d="m276.76,333.03l-32.09-18.53c-1.35,2.21-2.68,4.42-3.99,6.65l32.08,18.52c1.31-2.23,2.65-4.44,4.01-6.64Z"/>
    <path class="cls-1" d="m265.03,353.39l-32.09-18.53c-1.23,2.28-2.41,4.58-3.6,6.88l32.11,18.54c1.17-2.31,2.36-4.61,3.58-6.89Z"/>
    <path class="cls-1" d="m278.24,732.55l-32.09,18.53c1.37,2.19,2.76,4.38,4.17,6.55l32.12-18.54c-1.42-2.17-2.83-4.34-4.2-6.53Z"/>
    <path class="cls-1" d="m220.76,531.58c0-55.1,11.7-108.39,33.87-157.08l-32.22-18.6c-25.31,54.32-38.67,113.97-38.67,175.68,0,65.35,14.98,128.4,43.28,185.25l32.16-18.57c-25.11-51.24-38.41-107.94-38.41-166.68Z"/>
    <path class="cls-1" d="m266.39,712.26l-32.08,18.52c1.24,2.27,2.49,4.53,3.77,6.78l32.08-18.52c-1.28-2.25-2.53-4.51-3.76-6.78Z"/>
    <path class="cls-1" d="m979.24,531.58c0,56.01-12.08,110.16-34.97,159.5l32.22,18.6c26.05-54.96,39.78-115.47,39.78-178.1s-14.57-126.64-42.11-182.86l-32.16,18.57c24.36,50.62,37.24,106.46,37.24,164.3Z"/>
    <path class="cls-1" d="m331.84,799.74c-14.91-14.91-28.4-30.86-40.46-47.66l-32.24,18.61c13.75,19.52,29.29,37.99,46.52,55.22,72.13,72.13,166.08,114.5,266.95,121.01v-37.09c-90.98-6.45-175.64-44.97-240.77-110.1Z"/>
    <path class="cls-1" d="m588.16,152.54v-37.05c-2.59.07-5.17.16-7.76.28v37.06c2.58-.13,5.17-.22,7.76-.3Z"/>
    <path class="cls-1" d="m934.88,353.22l32.09-18.53c-1.22-2.28-2.47-4.54-3.74-6.79l-32.08,18.52c1.27,2.26,2.52,4.52,3.74,6.8Z"/>
    <path class="cls-1" d="m923.15,332.87l32.09-18.53c-1.35-2.2-2.72-4.4-4.11-6.58l-32.12,18.54c1.41,2.17,2.79,4.36,4.14,6.56Z"/>
    <path class="cls-1" d="m611.65,152.54v-37.05c-2.58-.07-5.17-.1-7.76-.12v37.02c2.59.03,5.17.07,7.76.15Z"/>
    <path class="cls-1" d="m868.16,263.42c15.55,15.55,29.58,32.22,42.02,49.81l32.18-18.58c-14.13-20.32-30.15-39.54-48.02-57.42-72.13-72.13-166.08-114.5-266.95-121.01v37.09c90.98,6.45,175.64,44.97,240.77,110.1Z"/>
    <path class="cls-1" d="m588.35,910.63v37.05c2.58.07,5.17.1,7.76.12v-37.02c-2.59-.03-5.17-.07-7.76-.15Z"/>
    <path class="cls-1" d="m921.85,732.39l32.09,18.53c1.37-2.2,2.73-4.4,4.05-6.62l-32.08-18.52c-1.33,2.22-2.69,4.42-4.06,6.61Z"/>
    <path class="cls-1" d="m611.84,910.62v37.05c2.59-.07,5.17-.16,7.75-.28v-37.06c-2.58.13-5.17.22-7.75.3Z"/>
    <path class="cls-1" d="m868.16,799.74c-63.23,63.24-144.87,101.37-232.83,109.44v37.16c97.86-8.17,188.78-50.19,259.02-120.42,19.15-19.15,36.18-39.84,51.02-61.79l-32.17-18.57c-13.18,19.21-28.21,37.35-45.04,54.18Z"/>
    <path class="cls-1" d="m933.7,712.1l32.08,18.52c1.24-2.27,2.46-4.55,3.65-6.85l-32.11-18.54c-1.19,2.3-2.39,4.59-3.62,6.86Z"/>
    <path class="cls-1" d="m580.41,162.97v-10.13c-5.27.27-10.51.65-15.74,1.13v8.99h15.74Z"/>
    <path class="cls-1" d="m580.41,106.53h-15.74v10.28c5.23-.44,10.47-.79,15.74-1.04v-9.24Z"/>
    <path class="cls-1" d="m603.9,115.36v-8.83h-15.74v8.96c3.94-.11,7.88-.18,11.84-.18,1.3,0,2.6.04,3.9.05Z"/>
    <path class="cls-1" d="m603.9,162.97v-10.58c-1.3-.01-2.6-.05-3.9-.05-3.96,0-7.9.08-11.84.2v10.43h15.74Z"/>
    <path class="cls-1" d="m627.39,106.53h-15.74v8.95c5.26.14,10.51.4,15.74.74v-9.69Z"/>
    <path class="cls-1" d="m627.39,162.97v-9.65c-5.22-.37-10.47-.62-15.74-.78v10.43h15.74Z"/>
    <path class="cls-1" d="m269.65,365.01l-8.2-4.73c-2.38,4.69-4.65,9.44-6.83,14.23l7.15,4.13,7.87-13.63Z"/>
    <path class="cls-1" d="m220.78,336.79l-7.87,13.63,9.5,5.48c2.22-4.76,4.54-9.48,6.94-14.16l-8.57-4.95Z"/>
    <path class="cls-1" d="m232.52,316.45l-7.87,13.63,8.28,4.78c2.48-4.62,5.07-9.18,7.73-13.71l-8.15-4.7Z"/>
    <path class="cls-1" d="m281.4,344.66l-8.65-4.99c-2.66,4.53-5.25,9.09-7.72,13.72l8.5,4.91,7.87-13.63Z"/>
    <path class="cls-1" d="m244.27,296.1l-7.87,13.63,8.27,4.77c2.74-4.47,5.55-8.91,8.47-13.28l-8.87-5.12Z"/>
    <path class="cls-1" d="m293.14,324.32l-7.85-4.53c-2.95,4.36-5.79,8.78-8.54,13.24l8.52,4.92,7.87-13.63Z"/>
    <path class="cls-1" d="m289.24,735.15l-6.8,3.93c2.88,4.39,5.86,8.73,8.93,13.01l5.73-3.31-7.87-13.63Z"/>
    <path class="cls-1" d="m240.37,763.37l7.87,13.63,10.9-6.29c-3.03-4.31-5.96-8.68-8.82-13.08l-9.95,5.75Z"/>
    <path class="cls-1" d="m277.5,714.81l-7.34,4.24c2.6,4.55,5.3,9.05,8.09,13.5l7.12-4.11-7.87-13.63Z"/>
    <path class="cls-1" d="m228.62,743.02l7.87,13.63,9.66-5.58c-2.78-4.46-5.48-8.96-8.08-13.51l-9.45,5.46Z"/>
    <path class="cls-1" d="m265.75,694.46l-6.58,3.8c2.31,4.71,4.71,9.38,7.22,14l7.23-4.17-7.87-13.63Z"/>
    <path class="cls-1" d="m216.88,722.68l7.87,13.63,9.56-5.52c-2.52-4.61-4.96-9.26-7.3-13.96l-10.13,5.85Z"/>
    <path class="cls-1" d="m619.59,903.25v7.07c5.27-.27,10.51-.65,15.74-1.13v-5.93h-15.74Z"/>
    <path class="cls-1" d="m619.59,959.69h15.74v-13.34c-5.23.44-10.47.79-15.74,1.04v12.3Z"/>
    <path class="cls-1" d="m596.1,903.25v7.52c1.3.01,2.6.05,3.9.05,3.96,0,7.9-.08,11.84-.2v-7.37h-15.74Z"/>
    <path class="cls-1" d="m596.1,947.8v11.89h15.74v-12.02c-3.94.11-7.88.18-11.84.18-1.3,0-2.6-.04-3.9-.05Z"/>
    <path class="cls-1" d="m572.61,903.25v6.59c5.22.37,10.47.62,15.74.78v-7.37h-15.74Z"/>
    <path class="cls-1" d="m572.61,959.69h15.74v-12.01c-5.26-.14-10.51-.4-15.74-.74v12.75Z"/>
    <path class="cls-1" d="m969.43,723.78l9.79,5.65,7.87-13.63-10.61-6.13c-2.25,4.75-4.62,9.44-7.05,14.1Z"/>
    <path class="cls-1" d="m930.35,701.21l6.97,4.03c2.41-4.67,4.73-9.4,6.94-14.16l-6.05-3.49-7.87,13.63Z"/>
    <path class="cls-1" d="m918.6,721.56l7.31,4.22c2.7-4.51,5.28-9.07,7.78-13.68l-7.23-4.17-7.87,13.63Z"/>
    <path class="cls-1" d="m967.48,749.78l7.87-13.63-9.56-5.52c-2.51,4.6-5.1,9.16-7.79,13.67l9.48,5.48Z"/>
    <path class="cls-1" d="m906.86,741.9l6.34,3.66c2.98-4.34,5.87-8.73,8.65-13.17l-7.13-4.11-7.87,13.63Z"/>
    <path class="cls-1" d="m955.73,770.12l7.87-13.63-9.66-5.58c-2.77,4.45-5.63,8.86-8.57,13.22l10.36,5.98Z"/>
    <path class="cls-1" d="m910.76,331.07l8.25-4.76c-2.85-4.41-5.78-8.78-8.82-13.08l-7.3,4.21,7.87,13.63Z"/>
    <path class="cls-1" d="m959.63,302.86l-7.87-13.63-9.4,5.42c3,4.32,5.93,8.69,8.76,13.11l8.51-4.91Z"/>
    <path class="cls-1" d="m922.5,351.42l8.64-4.99c-2.56-4.57-5.24-9.09-8-13.55l-8.51,4.92,7.87,13.63Z"/>
    <path class="cls-1" d="m971.38,323.2l-7.87-13.63-8.27,4.77c2.75,4.47,5.42,8.99,7.99,13.56l8.15-4.7Z"/>
    <path class="cls-1" d="m934.25,371.76l7.75-4.47c-2.28-4.73-4.64-9.43-7.12-14.06l-8.5,4.91,7.87,13.63Z"/>
    <path class="cls-1" d="m983.12,343.54l-7.87-13.63-8.28,4.78c2.49,4.63,4.87,9.31,7.18,14.02l8.97-5.18Z"/>
  </g>
</svg>