<?xml version="1.0" encoding="utf-8"?>
<!-- Generator: Adobe Illustrator 27.8.1, SVG Export Plug-In . SVG Version: 6.00 Build 0)  -->
<svg version="1.1" id="Layer_1" xmlns="http://www.w3.org/2000/svg" xmlns:xlink="http://www.w3.org/1999/xlink" x="0px" y="0px"
	 viewBox="0 0 1200 1200" style="enable-background:new 0 0 1200 1200;" xml:space="preserve">
<style type="text/css">
	.st0{fill:#00C0F3;}
</style>
<g>
	<path class="st0" d="M366.6,1068.5l-3.6,24.9h-71.9l14.5-100.4h29.8l-10.9,75.5H366.6L366.6,1068.5z"/>
	<path class="st0" d="M367.6,1093.5L382,993.1h29.8l-14.5,100.4H367.6L367.6,1093.5z"/>
	<path class="st0" d="M494.8,1093.5l8.4-59.4l-27.3,49.6h-19.5l-13.1-49.6l-8.6,59.4h-26.2L423,993.1H455l16.2,55.6l32.2-55.6h31.9
		l-14.5,100.4L494.8,1093.5L494.8,1093.5z"/>
	<path class="st0" d="M561.4,1077.4l-8.3,16h-30.7l57.3-100.4h30.7l26.9,100.4h-31.8l-3.6-16H561.4z M589.9,1022.8l-17,32.8h24.3
		L589.9,1022.8L589.9,1022.8z"/>
	<path class="st0" d="M642.9,1058.4l2.6-18.1h39.1l-2.6,18.1H642.9z"/>
	<path class="st0" d="M728.1,1016l-2.3,15.8h47.4l-3.3,22.9h-47.4l-2.3,15.9H774l-3.3,22.9h-83.5l14.5-100.4h82.1l-3.3,22.9
		L728.1,1016L728.1,1016z"/>
	<path class="st0" d="M779.2,1093.5l14.5-100.4h29.8L809,1093.5H779.2L779.2,1093.5z"/>
	<path class="st0" d="M861.2,1016l-2.3,15.8h47.4l-3.3,22.9h-47.4l-2.3,15.9H907l-3.3,22.9h-83.5l14.5-100.4h82.1l-3.3,22.9
		L861.2,1016L861.2,1016z"/>
</g>
<g>
	<path class="st0" d="M926.2,663.4l-66.7-123H653.6V497H590l-12.3,14.6l-8.8,9.6H329.4c-2.3-4.8-7.3-8.2-13-8.2
		c-8,0-14.4,6.5-14.4,14.4s6.5,14.4,14.4,14.4c5.7,0,10.7-3.3,13-8.2H567v32.2h86.6v-13h198.8l58.4,109.2l-68,93.1l-73.1-53.8
		c0.5-1.9,0.8-3.8,0.8-5.9c0-12.7-10.3-23-23-23s-23,10.3-23,23s10.3,23,23,23c6.2,0,11.8-2.5,15.9-6.4l82.3,58.8L926.2,663.4
		L926.2,663.4z M579.5,528.3l7.6-8.4l8.8-10.4h45.2v22h-30.8v22h-30.8L579.5,528.3L579.5,528.3z M747.4,708.6
		c-7.2,0-13.1-5.9-13.1-13.1s5.9-13.1,13.1-13.1s13.1,5.9,13.1,13.1S754.6,708.6,747.4,708.6z"/>
	<path class="st0" d="M840.8,583.7H729.3c-2.3-4.8-7.3-8.2-13-8.2c-8,0-14.4,6.5-14.4,14.4s6.5,14.4,14.4,14.4
		c5.7,0,10.7-3.3,13-8.2h104.3l35.2,60.9l-23.2,28.1c-1.2-0.3-2.6-0.6-3.9-0.6c-8,0-14.4,6.5-14.4,14.4s6.5,14.4,14.4,14.4
		s14.4-6.5,14.4-14.4c0-2-0.4-3.9-1.1-5.6l29-35L840.8,583.7L840.8,583.7z"/>
	<path class="st0" d="M540.5,477.3l30.2-30.2l-70.3-157.8l57.6-77.5h81.3l57.9,71.5l-33.8,61.2c-1.6-0.4-3.2-0.5-4.9-0.5
		c-12.7,0-23,10.3-23,23s10.3,23,23,23s23-10.3,23-23c0-6.5-2.7-12.4-7.1-16.6l37.8-68.6l-67.2-82.5h-93.4L486,287.8l69.8,156.6
		l-20.5,20.5H371.7l-43.5-43.4l-5.4-67.4l39.3-39.3l46,49.6c-0.9,1.9-1.4,3.9-1.4,6.1c0,8,6.5,14.4,14.4,14.4s14.4-6.5,14.4-14.4
		s-6.5-14.4-14.4-14.4c-1.2,0-2.3,0.2-3.4,0.4l-54.8-60.3l-52.7,52.7l5.4,77.7l50.8,50.8L540.5,477.3L540.5,477.3z M658.5,380.2
		c-7.2,0-13.1-5.9-13.1-13.1s5.9-13.1,13.1-13.1s13.1,5.9,13.1,13.1S665.8,380.2,658.5,380.2z"/>
	<path class="st0" d="M548,583.7l-90.1,151.5H340.6l-38.7-65.3v-66.6c9.7-2.7,16.8-11.6,16.8-22.2c0-12.7-10.3-23-23-23
		s-23,10.3-23,23c0,10.5,7.1,19.4,16.8,22.2v70l44.1,74.4H465l90.1-151.5h85l59.1,213.6l-56.9,56.9h-76.6L522.1,830l16-22.6
		c1.3,0.4,2.8,0.6,4.2,0.6c8,0,14.4-6.5,14.4-14.4s-6.5-14.4-14.4-14.4s-14.4,6.5-14.4,14.4c0,1.9,0.4,3.7,1,5.3l-24.5,31l56.1,49.1
		h87l65.7-65.7l-63.6-229.8L548,583.7L548,583.7z M282.6,581.1c0-7.2,5.9-13.1,13.1-13.1s13.1,5.9,13.1,13.1s-5.9,13.1-13.1,13.1
		S282.6,588.3,282.6,581.1z"/>
	<path class="st0" d="M631.7,623.4h-65.9l-50.5,89.5c-0.4,0-0.9-0.1-1.3-0.1c-8,0-14.4,6.5-14.4,14.4s6.5,14.4,14.4,14.4
		c8,0,14.4-6.5,14.4-14.4c0-2.9-0.9-5.7-2.4-7.9l47-83.4h49l35.6,133.4l-28.3,28.3c-3.9-3.1-8.9-5-14.2-5c-12.7,0-23,10.3-23,23
		s10.3,23,23,23s23-10.3,23-23c0-2.8-0.5-5.4-1.4-7.8l34.8-34.8L631.7,623.4L631.7,623.4z M615.1,828.8c-7.2,0-13.1-5.9-13.1-13.1
		s5.9-13.1,13.1-13.1s13.1,5.9,13.1,13.1S622.3,828.8,615.1,828.8z"/>
	<path class="st0" d="M324.6,659l27.2,51.7h86.1l64.5-114.4c0.6,0.1,1.3,0.1,2,0.1c12.7,0,23-10.3,23-23s-10.3-23-23-23
		s-23,10.3-23,23c0,7.5,3.7,14.2,9.3,18.4l-60,106.4h-71.3L337.1,656V610l28.8-29.7c1.4,0.5,3,0.8,4.6,0.8c8,0,14.4-6.5,14.4-14.4
		s-6.5-14.4-14.4-14.4s-14.4,6.5-14.4,14.4c0,1.8,0.3,3.4,0.9,5L324.6,605L324.6,659L324.6,659z M504.4,560.3
		c7.2,0,13.1,5.9,13.1,13.1s-5.9,13.1-13.1,13.1s-13.1-5.9-13.1-13.1S497.2,560.3,504.4,560.3z"/>
	<path class="st0" d="M411.9,314.4c3.9,0,7.5-1,10.7-2.7l68.9,88.9c-1,1.9-1.5,4.1-1.5,6.5c0,8,6.5,14.4,14.4,14.4
		s14.4-6.5,14.4-14.4s-6.5-14.4-14.4-14.4c-1,0-2.1,0.1-3,0.3l-69.7-89.9c2-3.4,3.2-7.4,3.2-11.7c0-12.7-10.3-23-23-23
		s-23,10.3-23,23S399.1,314.4,411.9,314.4L411.9,314.4z M411.9,278.3c7.2,0,13.1,5.9,13.1,13.1s-5.9,13.1-13.1,13.1
		s-13.1-5.9-13.1-13.1S404.6,278.3,411.9,278.3z"/>
	<path class="st0" d="M671.2,454.6c-8,0-14.4,6.5-14.4,14.4s6.5,14.4,14.4,14.4s14.4-6.5,14.4-14.4c0-2.8-0.8-5.4-2.2-7.6
		l95.3-143.4h83.4l49.1,92.7l-47.8,65.8h-70.9c-2.7-9.7-11.6-16.8-22.2-16.8c-12.7,0-23,10.3-23,23s10.3,23,23,23
		c10.5,0,19.4-7.1,22.2-16.8h77.7l55.9-75.4l-55.7-108.2h-98.3L673,454.7C672.4,454.7,671.8,454.6,671.2,454.6L671.2,454.6z
		 M770.5,496c-7.2,0-13.1-5.9-13.1-13.1s5.9-13.1,13.1-13.1s13.1,5.9,13.1,13.1S777.7,496,770.5,496z"/>
	<path class="st0" d="M282.1,405.8l0.9,35.7l65.1,64.4h208.7l51.1-51.1L539,297.5l33.2-52.5h52.5l21.4,38.9
		c-1.3,2.2-2.1,4.7-2.1,7.5c0,8,6.5,14.4,14.4,14.4s14.4-6.5,14.4-14.4s-6.5-14.4-14.4-14.4c-0.6,0-1.3,0.1-1.9,0.1l-24.9-44.5
		h-66.5l-40.4,64l68,155.4l-41.4,41.4H353.1l-57.8-57.2l-0.7-30.5c4.7-2.4,8-7.2,8-12.9c0-8-6.5-14.4-14.4-14.4s-14.4,6.5-14.4,14.4
		C273.7,398.5,277.1,403.5,282.1,405.8L282.1,405.8z"/>
	<path class="st0" d="M875.2,421.3c8,0,14.4-6.5,14.4-14.4s-5.9-13.9-13.4-14.4l-22.7-45.4h-70.1l-52.8,79.5c-0.4,0-0.8-0.1-1.3-0.1
		c-8,0-14.4,6.5-14.4,14.4s6.5,14.4,14.4,14.4s14.4-6.5,14.4-14.4c0-3-0.9-5.7-2.4-8l48.8-73.4h55.3l19.2,37.5
		c-2.4,2.6-3.8,6-3.8,9.8C860.8,414.9,867.3,421.3,875.2,421.3L875.2,421.3z"/>
</g>
<g>
	<path class="st0" d="M331.8,263.4c63.2-63.2,144.9-101.4,232.8-109.4v-37.2c-97.9,8.2-188.8,50.2-259,120.4
		c-19.8,19.8-37.3,41.2-52.5,64l32.2,18.6C298.8,299.8,314.4,280.9,331.8,263.4L331.8,263.4z"/>
	<path class="st0" d="M276.8,333l-32.1-18.5c-1.4,2.2-2.7,4.4-4,6.6l32.1,18.5C274.1,337.4,275.4,335.2,276.8,333L276.8,333z"/>
	<path class="st0" d="M265,353.4l-32.1-18.5c-1.2,2.3-2.4,4.6-3.6,6.9l32.1,18.5C262.6,358,263.8,355.7,265,353.4z"/>
	<path class="st0" d="M278.2,732.5l-32.1,18.5c1.4,2.2,2.8,4.4,4.2,6.5l32.1-18.5C281,736.9,279.6,734.8,278.2,732.5L278.2,732.5z"
		/>
	<path class="st0" d="M220.8,531.6c0-55.1,11.7-108.4,33.9-157.1l-32.2-18.6c-25.3,54.3-38.7,114-38.7,175.7
		c0,65.3,15,128.4,43.3,185.2l32.2-18.6C234.1,647,220.8,590.3,220.8,531.6L220.8,531.6z"/>
	<path class="st0" d="M266.4,712.3l-32.1,18.5c1.2,2.3,2.5,4.5,3.8,6.8l32.1-18.5C268.9,716.8,267.6,714.5,266.4,712.3L266.4,712.3z
		"/>
	<path class="st0" d="M979.2,531.6c0,56-12.1,110.2-35,159.5l32.2,18.6c26-55,39.8-115.5,39.8-178.1s-14.6-126.6-42.1-182.9
		L942,367.3C966.4,417.9,979.2,473.7,979.2,531.6L979.2,531.6z"/>
	<path class="st0" d="M331.8,799.7c-14.9-14.9-28.4-30.9-40.5-47.7l-32.2,18.6c13.8,19.5,29.3,38,46.5,55.2
		c72.1,72.1,166.1,114.5,266.9,121v-37.1C481.6,903.4,397,864.9,331.8,799.7L331.8,799.7z"/>
	<path class="st0" d="M588.2,152.5v-37.1c-2.6,0.1-5.2,0.2-7.8,0.3v37.1C583,152.7,585.6,152.6,588.2,152.5L588.2,152.5z"/>
	<path class="st0" d="M934.9,353.2l32.1-18.5c-1.2-2.3-2.5-4.5-3.7-6.8l-32.1,18.5C932.4,348.7,933.7,350.9,934.9,353.2L934.9,353.2
		z"/>
	<path class="st0" d="M923.2,332.9l32.1-18.5c-1.3-2.2-2.7-4.4-4.1-6.6L919,326.3C920.4,328.5,921.8,330.7,923.2,332.9L923.2,332.9z
		"/>
	<path class="st0" d="M611.7,152.5v-37.1c-2.6-0.1-5.2-0.1-7.8-0.1v37C606.5,152.4,609.1,152.5,611.7,152.5L611.7,152.5z"/>
	<path class="st0" d="M868.2,263.4c15.5,15.5,29.6,32.2,42,49.8l32.2-18.6c-14.1-20.3-30.2-39.5-48-57.4
		c-72.1-72.1-166.1-114.5-267-121v37.1C718.4,159.8,803,198.3,868.2,263.4L868.2,263.4z"/>
	<path class="st0" d="M588.3,910.6v37c2.6,0.1,5.2,0.1,7.8,0.1v-37C593.5,910.7,590.9,910.7,588.3,910.6L588.3,910.6z"/>
	<path class="st0" d="M921.8,732.4l32.1,18.5c1.4-2.2,2.7-4.4,4-6.6l-32.1-18.5C924.6,728,923.2,730.2,921.8,732.4z"/>
	<path class="st0" d="M611.8,910.6v37c2.6-0.1,5.2-0.2,7.8-0.3v-37.1C617,910.5,614.4,910.5,611.8,910.6L611.8,910.6z"/>
	<path class="st0" d="M868.2,799.7C804.9,863,723.3,901.1,635.3,909.2v37.2c97.9-8.2,188.8-50.2,259-120.4
		c19.2-19.2,36.2-39.8,51-61.8l-32.2-18.6C900,764.8,885,782.9,868.2,799.7L868.2,799.7z"/>
	<path class="st0" d="M933.7,712.1l32.1,18.5c1.2-2.3,2.5-4.5,3.7-6.8l-32.1-18.5C936.1,707.5,934.9,709.8,933.7,712.1L933.7,712.1z
		"/>
	<path class="st0" d="M580.4,163v-10.1c-5.3,0.3-10.5,0.6-15.7,1.1v9L580.4,163L580.4,163z"/>
	<path class="st0" d="M580.4,106.5h-15.7v10.3c5.2-0.4,10.5-0.8,15.7-1V106.5z"/>
	<path class="st0" d="M603.9,115.4v-8.8h-15.7v9c3.9-0.1,7.9-0.2,11.8-0.2C601.3,115.3,602.6,115.3,603.9,115.4L603.9,115.4z"/>
	<path class="st0" d="M603.9,163v-10.6c-1.3,0-2.6-0.1-3.9-0.1c-4,0-7.9,0.1-11.8,0.2V163H603.9L603.9,163z"/>
	<path class="st0" d="M627.4,106.5h-15.7v8.9c5.3,0.1,10.5,0.4,15.7,0.7C627.4,116.2,627.4,106.5,627.4,106.5z"/>
	<path class="st0" d="M627.4,163v-9.6c-5.2-0.4-10.5-0.6-15.7-0.8V163H627.4z"/>
	<path class="st0" d="M269.6,365l-8.2-4.7c-2.4,4.7-4.6,9.4-6.8,14.2l7.2,4.1L269.6,365L269.6,365z"/>
	<path class="st0" d="M220.8,336.8l-7.9,13.6l9.5,5.5c2.2-4.8,4.5-9.5,6.9-14.2L220.8,336.8z"/>
	<path class="st0" d="M232.5,316.5l-7.9,13.6l8.3,4.8c2.5-4.6,5.1-9.2,7.7-13.7L232.5,316.5L232.5,316.5z"/>
	<path class="st0" d="M281.4,344.7l-8.6-5c-2.7,4.5-5.2,9.1-7.7,13.7l8.5,4.9L281.4,344.7L281.4,344.7z"/>
	<path class="st0" d="M244.3,296.1l-7.9,13.6l8.3,4.8c2.7-4.5,5.6-8.9,8.5-13.3L244.3,296.1L244.3,296.1z"/>
	<path class="st0" d="M293.1,324.3l-7.9-4.5c-3,4.4-5.8,8.8-8.5,13.2l8.5,4.9L293.1,324.3L293.1,324.3z"/>
	<path class="st0" d="M289.2,735.2l-6.8,3.9c2.9,4.4,5.9,8.7,8.9,13l5.7-3.3L289.2,735.2L289.2,735.2z"/>
	<path class="st0" d="M240.4,763.4l7.9,13.6l10.9-6.3c-3-4.3-6-8.7-8.8-13.1L240.4,763.4L240.4,763.4z"/>
	<path class="st0" d="M277.5,714.8l-7.3,4.2c2.6,4.5,5.3,9,8.1,13.5l7.1-4.1L277.5,714.8z"/>
	<path class="st0" d="M228.6,743l7.9,13.6l9.7-5.6c-2.8-4.5-5.5-9-8.1-13.5L228.6,743z"/>
	<path class="st0" d="M265.8,694.5l-6.6,3.8c2.3,4.7,4.7,9.4,7.2,14l7.2-4.2L265.8,694.5L265.8,694.5z"/>
	<path class="st0" d="M216.9,722.7l7.9,13.6l9.6-5.5c-2.5-4.6-5-9.3-7.3-14L216.9,722.7L216.9,722.7z"/>
	<path class="st0" d="M619.6,903.2v7.1c5.3-0.3,10.5-0.7,15.7-1.1v-5.9L619.6,903.2L619.6,903.2z"/>
	<path class="st0" d="M619.6,959.7h15.7v-13.3c-5.2,0.4-10.5,0.8-15.7,1V959.7L619.6,959.7z"/>
	<path class="st0" d="M596.1,903.2v7.5c1.3,0,2.6,0,3.9,0c4,0,7.9-0.1,11.8-0.2v-7.4H596.1L596.1,903.2z"/>
	<path class="st0" d="M596.1,947.8v11.9h15.7v-12c-3.9,0.1-7.9,0.2-11.8,0.2C598.7,947.8,597.4,947.8,596.1,947.8L596.1,947.8z"/>
	<path class="st0" d="M572.6,903.2v6.6c5.2,0.4,10.5,0.6,15.7,0.8v-7.4L572.6,903.2L572.6,903.2z"/>
	<path class="st0" d="M572.6,959.7h15.7v-12c-5.3-0.1-10.5-0.4-15.7-0.7V959.7z"/>
	<path class="st0" d="M969.4,723.8l9.8,5.7l7.9-13.6l-10.6-6.1C974.2,714.4,971.9,719.1,969.4,723.8L969.4,723.8z"/>
	<path class="st0" d="M930.3,701.2l7,4c2.4-4.7,4.7-9.4,6.9-14.2l-6-3.5L930.3,701.2L930.3,701.2z"/>
	<path class="st0" d="M918.6,721.6l7.3,4.2c2.7-4.5,5.3-9.1,7.8-13.7l-7.2-4.2L918.6,721.6L918.6,721.6z"/>
	<path class="st0" d="M967.5,749.8l7.9-13.6l-9.6-5.5c-2.5,4.6-5.1,9.2-7.8,13.7L967.5,749.8L967.5,749.8z"/>
	<path class="st0" d="M906.9,741.9l6.3,3.7c3-4.3,5.9-8.7,8.7-13.2l-7.1-4.1L906.9,741.9L906.9,741.9z"/>
	<path class="st0" d="M955.7,770.1l7.9-13.6l-9.7-5.6c-2.8,4.5-5.6,8.9-8.6,13.2L955.7,770.1L955.7,770.1z"/>
	<path class="st0" d="M910.8,331.1l8.2-4.8c-2.8-4.4-5.8-8.8-8.8-13.1l-7.3,4.2L910.8,331.1z"/>
	<path class="st0" d="M959.6,302.9l-7.9-13.6l-9.4,5.4c3,4.3,5.9,8.7,8.8,13.1L959.6,302.9L959.6,302.9z"/>
	<path class="st0" d="M922.5,351.4l8.6-5c-2.6-4.6-5.2-9.1-8-13.5l-8.5,4.9L922.5,351.4L922.5,351.4z"/>
	<path class="st0" d="M971.4,323.2l-7.9-13.6l-8.3,4.8c2.8,4.5,5.4,9,8,13.6L971.4,323.2L971.4,323.2z"/>
	<path class="st0" d="M934.2,371.8l7.8-4.5c-2.3-4.7-4.6-9.4-7.1-14.1l-8.5,4.9L934.2,371.8L934.2,371.8z"/>
	<path class="st0" d="M983.1,343.5l-7.9-13.6l-8.3,4.8c2.5,4.6,4.9,9.3,7.2,14L983.1,343.5L983.1,343.5z"/>
</g>
</svg>
