<?xml version="1.0" encoding="utf-8"?>
<!-- Generator: Adobe Illustrator 27.8.1, SVG Export Plug-In . SVG Version: 6.00 Build 0)  -->
<svg version="1.1" id="Layer_1" xmlns="http://www.w3.org/2000/svg" xmlns:xlink="http://www.w3.org/1999/xlink" x="0px" y="0px"
	 viewBox="0 0 1200 1200" style="enable-background:new 0 0 1200 1200;" xml:space="preserve">
<style type="text/css">
	.st0{fill:#FFE06A;}
	.st1{fill:#00C0F3;}
</style>
<path class="st0" d="M600,950.1c-111.9,0-217.1-43.6-296.3-122.7S181,643,181,531.1s43.6-217.1,122.7-296.3S488.1,112,600,112
	s217.2,43.6,296.3,122.7S1019,419.1,1019,531.1s-43.6,217.2-122.7,296.3S711.9,950.1,600,950.1L600,950.1z M600,149.3
	c-102,0-197.8,39.7-269.9,111.8S218.3,429.1,218.3,531S258,728.9,330.1,801S498,912.8,600,912.8S797.8,873.1,869.9,801
	S981.7,633,981.7,531S942,333.2,869.9,261.1S702,149.3,600,149.3z"/>
<g>
	<path class="st1" d="M364.8,1072.1l-3.6,25.1h-72.5l14.6-101.2h30l-11,76.1L364.8,1072.1L364.8,1072.1z"/>
	<path class="st1" d="M365.8,1097.2l14.6-101.2h30l-14.6,101.2H365.8z"/>
	<path class="st1" d="M494,1097.2l8.5-59.9l-27.5,49.9h-19.6l-13.1-49.9l-8.6,59.9h-26.4l14.6-101.2h32.2l16.3,56l32.5-56h32.2
		l-14.6,101.2L494,1097.2L494,1097.2z"/>
	<path class="st1" d="M561.1,1081.1l-8.4,16.2h-30.9l57.7-101.2h30.9l27.1,101.2h-32l-3.6-16.2H561.1z M589.8,1026.1l-17.2,33.1
		h24.5L589.8,1026.1z"/>
	<path class="st1" d="M643.2,1061.9l2.6-18.2h39.4l-2.6,18.2H643.2z"/>
	<path class="st1" d="M729.1,1019.2l-2.3,15.9h47.8l-3.3,23.1h-47.8l-2.3,16h54.1l-3.3,23.1h-84.2l14.6-101.2h82.7l-3.3,23.1
		L729.1,1019.2L729.1,1019.2z"/>
	<path class="st1" d="M780.6,1097.2l14.6-101.2h30l-14.6,101.2H780.6z"/>
	<path class="st1" d="M863.2,1019.2l-2.3,15.9h47.8l-3.3,23.1h-47.8l-2.3,16h54.1l-3.3,23.1h-84.2l14.6-101.2h82.7l-3.3,23.1
		L863.2,1019.2L863.2,1019.2z"/>
</g>
<g>
	<path class="st1" d="M928.7,663.9L861.4,540H654v-43.8h-64l-12.4,14.7l-8.8,9.7H327.3c-2.4-4.9-7.3-8.3-13.1-8.3
		c-8,0-14.5,6.5-14.5,14.5s6.5,14.5,14.5,14.5c5.8,0,10.8-3.4,13.1-8.3h239.4v32.5H654v-13.1h200.3l58.8,110l-68.5,93.8L771,702.2
		c0.5-1.9,0.8-3.9,0.8-5.9c0-12.8-10.4-23.2-23.2-23.2s-23.2,10.4-23.2,23.2s10.4,23.2,23.2,23.2c6.2,0,11.9-2.5,16-6.5l82.9,59.3
		L928.7,663.9L928.7,663.9z M579.3,527.7l7.7-8.5l8.8-10.5h45.6v22.2h-31.1v22.2h-31.1L579.3,527.7L579.3,527.7z M748.5,709.4
		c-7.3,0-13.2-5.9-13.2-13.2s5.9-13.2,13.2-13.2s13.2,5.9,13.2,13.2S755.8,709.4,748.5,709.4z"/>
	<path class="st1" d="M842.7,583.5H730.3c-2.3-4.9-7.3-8.3-13.1-8.3c-8,0-14.5,6.5-14.5,14.5s6.5,14.5,14.5,14.5
		c5.8,0,10.8-3.4,13.1-8.3h105.1l35.5,61.3l-23.4,28.3c-1.3-0.4-2.6-0.6-4-0.6c-8,0-14.5,6.5-14.5,14.5s6.5,14.5,14.5,14.5
		s14.5-6.5,14.5-14.5c0-2-0.4-3.9-1.1-5.7l29.3-35.3L842.7,583.5L842.7,583.5z"/>
	<path class="st1" d="M540.1,476.4l30.4-30.4l-70.9-159l58-78.1h82L698,281l-34,61.7c-1.6-0.4-3.3-0.5-5-0.5
		c-12.8,0-23.2,10.4-23.2,23.2s10.4,23.2,23.2,23.2s23.2-10.4,23.2-23.2c0-6.6-2.8-12.5-7.2-16.7l38.1-69.1l-67.7-83.1h-94.2
		l-66.2,89.1l70.3,157.8l-20.6,20.6H370L326.2,420l-5.4-67.9l39.6-39.6l46.4,50c-0.9,1.9-1.4,4-1.4,6.1c0,8,6.5,14.5,14.5,14.5
		s14.5-6.5,14.5-14.5s-6.5-14.5-14.5-14.5c-1.2,0-2.3,0.2-3.4,0.4l-55.2-60.7l-53.1,53.1l5.4,78.3l51.1,51.1L540.1,476.4
		L540.1,476.4z M659,378.5c-7.3,0-13.2-5.9-13.2-13.2s5.9-13.2,13.2-13.2s13.2,5.9,13.2,13.2S666.3,378.5,659,378.5z"/>
	<path class="st1" d="M547.6,583.5l-90.8,152.7H338.7l-39-65.8v-67.1c9.8-2.8,16.9-11.7,16.9-22.3c0-12.8-10.4-23.2-23.2-23.2
		s-23.2,10.4-23.2,23.2c0,10.6,7.2,19.6,16.9,22.3v70.6l44.4,75H464l90.8-152.7h85.6L700,811.3l-57.4,57.4h-77.2l-43.9-36.9
		l16.1-22.7c1.3,0.4,2.8,0.6,4.3,0.6c8,0,14.5-6.5,14.5-14.5s-6.5-14.5-14.5-14.5s-14.5,6.5-14.5,14.5c0,1.9,0.4,3.7,1,5.3
		l-24.7,31.3l56.5,49.5h87.6L714,815L650,583.5L547.6,583.5L547.6,583.5z M280.2,580.9c0-7.3,5.9-13.2,13.2-13.2s13.2,5.9,13.2,13.2
		s-5.9,13.2-13.2,13.2S280.2,588.2,280.2,580.9z"/>
	<path class="st1" d="M631.9,623.6h-66.4l-50.8,90.2c-0.5,0-0.9-0.1-1.3-0.1c-8,0-14.5,6.5-14.5,14.5s6.5,14.5,14.5,14.5
		s14.5-6.5,14.5-14.5c0-3-0.9-5.7-2.4-8l47.4-84.1h49.3l35.9,134.4l-28.5,28.5c-4-3.1-8.9-5-14.3-5c-12.8,0-23.2,10.4-23.2,23.2
		s10.4,23.2,23.2,23.2s23.2-10.4,23.2-23.2c0-2.8-0.5-5.4-1.4-7.9l35.1-35.1L631.9,623.6L631.9,623.6z M615.2,830.5
		c-7.3,0-13.2-5.9-13.2-13.2s5.9-13.2,13.2-13.2s13.2,5.9,13.2,13.2S622.5,830.5,615.2,830.5z"/>
	<path class="st1" d="M322.5,659.5l27.5,52.1h86.8l65-115.3c0.7,0.1,1.3,0.1,2,0.1c12.8,0,23.2-10.4,23.2-23.2S516.5,550,503.7,550
		s-23.2,10.4-23.2,23.2c0,7.6,3.7,14.3,9.4,18.6L429.3,699h-71.8l-22.5-42.6v-46.3l29-30c1.5,0.5,3,0.8,4.6,0.8
		c8,0,14.5-6.5,14.5-14.5s-6.5-14.5-14.5-14.5s-14.5,6.5-14.5,14.5c0,1.8,0.3,3.5,0.9,5L322.5,605L322.5,659.5L322.5,659.5z
		 M503.7,560c7.3,0,13.2,5.9,13.2,13.2s-5.9,13.2-13.2,13.2s-13.2-5.9-13.2-13.2S496.4,560,503.7,560L503.7,560z"/>
	<path class="st1" d="M410.4,312.2c3.9,0,7.6-1,10.8-2.7l69.5,89.6c-1,2-1.5,4.2-1.5,6.5c0,8,6.5,14.5,14.5,14.5s14.5-6.5,14.5-14.5
		s-6.5-14.5-14.5-14.5c-1,0-2.1,0.1-3.1,0.3l-70.3-90.6c2-3.5,3.3-7.5,3.3-11.8c0-12.8-10.4-23.2-23.2-23.2s-23.2,10.4-23.2,23.2
		S397.6,312.2,410.4,312.2L410.4,312.2z M410.4,275.8c7.3,0,13.2,5.9,13.2,13.2s-5.9,13.2-13.2,13.2s-13.2-5.9-13.2-13.2
		S403.1,275.8,410.4,275.8z"/>
	<path class="st1" d="M671.8,453.5c-8,0-14.5,6.5-14.5,14.5s6.5,14.5,14.5,14.5s14.5-6.5,14.5-14.5c0-2.8-0.8-5.4-2.2-7.6l96-144.4
		h84.1l49.5,93.5l-48.2,66.3h-71.4c-2.8-9.8-11.7-16.9-22.3-16.9c-12.8,0-23.2,10.4-23.2,23.2s10.4,23.2,23.2,23.2
		c10.6,0,19.6-7.2,22.3-16.9h78.2l56.3-75.9l-56.1-109h-99.1l-99.9,150.2C673,453.6,672.4,453.5,671.8,453.5L671.8,453.5z
		 M771.8,495.2c-7.3,0-13.2-5.9-13.2-13.2s5.9-13.2,13.2-13.2s13.2,5.9,13.2,13.2S779,495.2,771.8,495.2z"/>
	<path class="st1" d="M279.6,404.3l0.9,35.9l65.6,64.9h210.3l51.5-51.5l-69.3-158.4l33.5-52.9H625l21.6,39.2
		c-1.3,2.2-2.1,4.8-2.1,7.5c0,8,6.5,14.5,14.5,14.5s14.5-6.5,14.5-14.5s-6.5-14.5-14.5-14.5c-0.6,0-1.3,0.1-1.9,0.1L632,229.7h-67
		l-40.7,64.5l68.5,156.6l-41.7,41.7H351.2l-58.3-57.7l-0.7-30.8c4.8-2.4,8.1-7.3,8.1-13c0-8-6.5-14.5-14.5-14.5s-14.5,6.5-14.5,14.5
		C271.2,396.9,274.6,402,279.6,404.3L279.6,404.3z"/>
	<path class="st1" d="M877.3,420c8,0,14.5-6.5,14.5-14.5s-6-14-13.5-14.5l-22.9-45.8h-70.6l-53.2,80.1c-0.4,0-0.8-0.1-1.3-0.1
		c-8,0-14.5,6.5-14.5,14.5s6.5,14.5,14.5,14.5s14.5-6.5,14.5-14.5c0-3-0.9-5.8-2.4-8.1l49.1-73.9h55.7l19.4,37.8
		c-2.4,2.6-3.9,6-3.9,9.9C862.8,413.4,869.3,419.9,877.3,420L877.3,420z"/>
</g>
<g>
	<rect x="564.4" y="102.8" class="st1" width="15.9" height="56.9"/>
	<rect x="588.1" y="102.8" class="st1" width="15.9" height="56.9"/>
	<rect x="611.7" y="102.8" class="st1" width="15.9" height="56.9"/>
</g>
<g>
	<rect x="230.6" y="327.4" transform="matrix(0.5 -0.866 0.866 0.5 -188.9118 384.5042)" class="st1" width="15.9" height="56.9"/>
	<rect x="242.4" y="306.9" transform="matrix(0.5 -0.866 0.866 0.5 -165.2368 384.503)" class="st1" width="15.9" height="56.9"/>
	<rect x="254.3" y="286.4" transform="matrix(0.5 -0.866 0.866 0.5 -141.5718 384.5018)" class="st1" width="15.9" height="56.9"/>
</g>
<g>
	<rect x="237.8" y="749.3" transform="matrix(0.866 -0.5 0.5 0.866 -342.9716 234.5555)" class="st1" width="56.9" height="15.9"/>
	<rect x="225.9" y="728.8" transform="matrix(0.866 -0.5 0.5 0.866 -334.3015 225.8928)" class="st1" width="56.9" height="15.9"/>
	<rect x="214.1" y="708.3" transform="matrix(0.866 -0.5 0.5 0.866 -325.6388 217.23)" class="st1" width="56.9" height="15.9"/>
</g>
<g>
	<rect x="619.7" y="905.6" class="st1" width="15.9" height="56.9"/>
	<rect x="596.1" y="905.6" class="st1" width="15.9" height="56.9"/>
	<rect x="572.4" y="905.6" class="st1" width="15.9" height="56.9"/>
</g>
<g>
	<rect x="953.5" y="680.9" transform="matrix(0.5 -0.866 0.866 0.5 -133.5699 1187.3199)" class="st1" width="15.9" height="56.9"/>
	<rect x="941.7" y="701.4" transform="matrix(0.5 -0.866 0.866 0.5 -157.247 1187.3199)" class="st1" width="15.9" height="56.9"/>
	<rect x="929.9" y="721.9" transform="matrix(0.5 -0.866 0.866 0.5 -180.914 1187.3199)" class="st1" width="15.9" height="56.9"/>
</g>
<g>
	<rect x="905.4" y="300" transform="matrix(0.866 -0.5 0.5 0.866 -28.8581 508.154)" class="st1" width="56.9" height="15.9"/>
	<rect x="917.2" y="320.5" transform="matrix(0.866 -0.5 0.5 0.866 -37.5242 516.8192)" class="st1" width="56.9" height="15.9"/>
	<rect x="929" y="341" transform="matrix(0.866 -0.5 0.5 0.866 -46.1866 525.4807)" class="st1" width="56.9" height="15.9"/>
</g>
</svg>
